HIERARCHY
ROOT Hips
{
	OFFSET 0.00 0.00 0.00
	CHANNELS 6 Xposition Yposition Zposition Xrotation Yrotation Zrotation
	JOINT Spine
	{
		OFFSET 0.00000 4.88528 0.00000
		CHANNELS 3 Xrotation Yrotation Zrotation
		JOINT Head
		{
			OFFSET 0.00000 16.49416 0.00000
			CHANNELS 3 Xrotation Yrotation Zrotation
			End Site
			{
				OFFSET 0.00000 4.52755 0.00000
			}
		}
		JOINT LeftShoulder
		{
			OFFSET 0.00000 10.66345 0.00000
			CHANNELS 3 Xrotation Yrotation Zrotation
			JOINT LeftArm
			{
				OFFSET 7.53191 0.00000 0.00000
				CHANNELS 3 Xrotation Yrotation Zrotation
				JOINT LeftForeArm
				{
					OFFSET 10.22920 0.00000 0.00000
					CHANNELS 3 Yrotation Zrotation Xrotation
					JOINT LeftHand
					{
						OFFSET 8.67349 0.00000 0.00000
						CHANNELS 3 Xrotation Yrotation Zrotation
						JOINT LeftHandThumb1
						{
							OFFSET 0.00000 0.00000 0.00000
							CHANNELS 3 Xrotation Zrotation Yrotation
							End Site
							{
								OFFSET 0.00000 0.00000 3.93700
							}
						}
						End Site
						{
							OFFSET 3.93700 0.00000 0.00000
						}
					}
				}
			}
		}
		JOINT RightShoulder
		{
			OFFSET 0.00000 10.66345 0.00000
			CHANNELS 3 Xrotation Yrotation Zrotation
			JOINT RightArm
			{
				OFFSET -7.53191 0.00000 0.00000
				CHANNELS 3 Xrotation Yrotation Zrotation
				JOINT RightForeArm
				{
					OFFSET -10.22920 0.00000 0.00000
					CHANNELS 3 Yrotation Zrotation Xrotation
					JOINT RightHand
					{
						OFFSET -8.67349 0.00000 0.00000
						CHANNELS 3 Xrotation Yrotation Zrotation
						JOINT RightHandThumb1
						{
							OFFSET 0.00000 0.00000 0.00000
							CHANNELS 3 Xrotation Zrotation Yrotation
							End Site
							{
								OFFSET 0.00000 0.00000 3.93700
							}
						}
						End Site
						{
							OFFSET -3.93700 0.00000 0.00000
						}
					}
				}
			}
		}
	}
	JOINT LeftUpLeg
	{
		OFFSET 2.67219 0.00000 0.00000
		CHANNELS 3 Xrotation Yrotation Zrotation
		JOINT LeftLeg
		{
			OFFSET 0.00000 -16.26339 0.00000
			CHANNELS 3 Xrotation Yrotation Zrotation
			JOINT LeftFoot
			{
				OFFSET 0.00000 -14.32816 0.00000
				CHANNELS 3 Xrotation Yrotation Zrotation
				JOINT LeftToeBase
				{
					OFFSET 0.00000 -1.30219 4.85985
					CHANNELS 3 Xrotation Yrotation Zrotation
					End Site
					{
						OFFSET 0.00000 0.00000 2.95275
					}
				}
			}
		}
	}
	JOINT RightUpLeg
	{
		OFFSET -2.67219 0.00000 0.00000
		CHANNELS 3 Xrotation Yrotation Zrotation
		JOINT RightLeg
		{
			OFFSET 0.00000 -16.26339 0.00000
			CHANNELS 3 Xrotation Yrotation Zrotation
			JOINT RightFoot
			{
				OFFSET 0.00000 -14.32816 0.00000
				CHANNELS 3 Xrotation Yrotation Zrotation
				JOINT RightToeBase
				{
					OFFSET 0.00000 -1.30219 4.85985
					CHANNELS 3 Xrotation Yrotation Zrotation
					End Site
					{
						OFFSET 0.00000 0.00000 2.95275
					}
				}
			}
		}
	}
}
MOTION
Frames: 13
Frame Time: 0.008333
 2.9412 32.7081 -12.6032 13.1414 -0.1599 -0.5026 -17.0010 -6.3501 -1.1683 16.2568 -4.1254 0.3010 28.4281 31.1401 21.6281 -73.0644 -3.2910 -30.0098 3.6619 0.0000 7.9706 0.4018 -4.2052 5.4628 33.1476 -0.0000 26.2537 -6.9740 -2.9036 -30.9430 -20.4568 -1.5152 42.2505 0.2966 -0.0000 7.9063 -0.0278 1.7599 0.9061 32.8623 0.0000 -24.3270 -4.5593 -5.7582 1.4337 -5.4564 0.0000 -0.0000 -2.1131 13.8168 -14.1100 -5.5383 -0.0000 0.0000 -4.1285 0.1068 1.8918 -4.8374 -0.0000 0.0000 -5.6790 -13.0386 5.5000 0.5665 -0.0000 0.0000
 2.9449 32.7080 -12.6021 13.1200 -0.1597 -0.5005 -17.0089 -6.3623 -1.1661 16.3080 -4.1025 0.2740 28.4051 31.1298 21.6423 -73.0440 -3.2487 -30.0297 3.6659 0.0000 7.9470 0.3887 -4.1202 5.3943 33.1476 -0.0000 26.2537 -6.9723 -2.8860 -30.9305 -20.4368 -1.5425 42.2241 0.2930 -0.0000 7.9266 -0.0236 1.8121 0.7463 32.8623 0.0000 -24.3270 -4.5396 -5.7814 1.4276 -5.4482 0.0000 -0.0000 -2.1242 13.8422 -14.1329 -5.4783 0.0000 0.0000 -4.1026 0.1286 1.8816 -4.8422 0.0000 -0.0000 -5.6800 -13.0711 5.5092 0.5483 -0.0000 0.0000
 2.9490 32.7080 -12.6009 13.0953 -0.1543 -0.4924 -17.0108 -6.3647 -1.1715 16.3308 -4.0870 0.2660 28.4221 31.1393 21.6256 -73.0792 -3.2397 -30.0610 3.6939 0.0000 7.8942 0.3842 -4.1030 5.3538 33.1476 -0.0000 26.2537 -6.9643 -2.8949 -30.9251 -20.4503 -1.5648 42.2157 0.3116 -0.0000 7.9320 -0.0165 1.5652 0.6050 32.8623 0.0000 -24.3270 -4.5246 -5.7965 1.4130 -5.4261 0.0000 -0.0000 -2.1304 13.8376 -14.1296 -5.5059 -0.0000 -0.0000 -4.0744 0.1151 1.8636 -4.8411 -0.0000 0.0000 -5.6897 -13.0515 5.5165 0.5459 -0.0000 0.0000
 2.9585 32.7086 -12.5987 13.0690 -0.1623 -0.4339 -17.0201 -6.3442 -1.2173 16.3583 -4.0752 0.2523 28.4390 31.1328 21.6083 -73.0911 -3.2000 -30.0762 3.6670 0.0000 7.9024 0.3853 -4.0733 5.4079 33.1476 -0.0000 26.2537 -6.9503 -2.8880 -30.8998 -20.4409 -1.5823 42.1639 0.3006 -0.0000 8.0903 -0.0159 1.5254 0.5989 32.8623 0.0000 -24.3270 -4.5545 -5.5789 1.3319 -5.3231 0.0000 0.0000 -2.1538 13.6121 -14.2406 -5.5497 0.0000 0.0000 -4.0456 0.1054 1.7851 -4.8385 -0.0000 0.0000 -5.7024 -13.0272 5.5758 0.5116 -0.0000 -0.0000
 2.9621 32.7079 -12.5984 13.0506 -0.1614 -0.4295 -17.0225 -6.3324 -1.2177 16.3603 -4.0625 0.2498 28.4030 31.0956 21.6272 -72.9807 -3.2471 -30.0883 3.7196 0.0000 7.7100 0.3858 -4.0963 5.3852 33.1476 -0.0000 26.2537 -6.9488 -2.9048 -30.9064 -20.4201 -1.5869 42.1635 0.3080 -0.0000 8.0912 -0.0187 1.5279 0.7027 32.8623 0.0000 -24.3270 -4.5500 -5.5370 1.3217 -5.3020 0.0000 -0.0000 -2.1725 13.5530 -14.2561 -5.5829 0.0000 -0.0000 -4.0264 0.1091 1.7723 -4.8363 0.0000 0.0000 -5.7286 -13.0286 5.5935 0.5737 -0.0000 -0.0000
 2.9659 32.7075 -12.5975 13.0333 -0.1594 -0.4184 -17.0340 -6.3287 -1.2324 16.3802 -4.0618 0.2630 28.4575 31.1113 21.6014 -72.9860 -3.2649 -30.1017 3.7272 0.0000 7.6165 0.3849 -4.0995 5.3681 33.1476 -0.0000 26.2537 -6.9032 -2.9313 -30.9086 -20.4187 -1.5746 42.1764 0.3409 -0.0000 7.9625 -0.0216 1.8552 0.6684 32.8623 0.0000 -24.3270 -4.5283 -5.5865 1.3047 -5.3065 0.0000 0.0000 -2.1721 13.6014 -14.2324 -5.5617 -0.0000 0.0000 -4.0073 0.0949 1.7556 -4.8337 -0.0000 -0.0000 -5.7322 -13.0189 5.5923 0.5185 0.0000 0.0000
 2.9688 32.7065 -12.5965 13.0080 -0.1668 -0.4100 -17.0292 -6.3148 -1.2461 16.3585 -4.0407 0.2969 28.5129 31.1420 21.5719 -73.0356 -3.2829 -30.1237 3.7470 0.0000 7.5582 0.3861 -4.1019 5.3819 33.1476 -0.0000 26.2537 -6.8919 -2.9516 -30.9027 -20.4093 -1.5602 42.1836 0.3163 -0.0000 7.9342 -0.0205 1.8000 0.6528 32.8623 0.0000 -24.3270 -4.5015 -5.5946 1.2899 -5.3043 0.0000 0.0000 -2.1987 13.6201 -14.1847 -5.5328 -0.0000 -0.0000 -3.9765 0.1066 1.7413 -4.8400 -0.0000 0.0000 -5.7489 -13.0254 5.6259 0.5720 -0.0000 0.0000
 2.9669 32.7055 -12.5963 12.9893 -0.1687 -0.4453 -17.0260 -6.3089 -1.2255 16.3743 -4.0390 0.3367 28.5034 31.1286 21.6014 -72.9944 -3.2782 -30.1256 3.7526 0.0000 7.5004 0.3953 -4.0912 5.5231 33.1476 -0.0000 26.2537 -6.8626 -2.9937 -30.8898 -20.3917 -1.5185 42.1891 0.2994 -0.0000 7.8206 -0.0242 1.7519 0.7929 32.8623 0.0000 -24.3270 -4.4364 -5.8017 1.3306 -5.3799 0.0000 -0.0000 -2.1982 13.8619 -14.0919 -5.4376 -0.0000 -0.0000 -3.9566 0.1035 1.7829 -4.8384 -0.0000 -0.0000 -5.7612 -13.0313 5.6073 0.6002 0.0000 -0.0000
 2.9702 32.7050 -12.5959 12.9697 -0.1778 -0.4465 -17.0250 -6.2980 -1.2221 16.3679 -4.0408 0.3574 28.5567 31.1489 21.5820 -73.1029 -3.1973 -30.1231 3.7100 0.0000 7.5994 0.3837 -4.1479 5.2896 33.1476 -0.0000 26.2537 -6.8638 -2.9932 -30.8885 -20.3544 -1.5027 42.1863 0.2710 -0.0000 7.8184 -0.0238 1.6233 0.8383 32.8623 0.0000 -24.3270 -4.4118 -5.8135 1.3247 -5.3871 0.0000 -0.0000 -2.2059 13.8884 -14.0487 -5.4551 -0.0000 0.0000 -3.9677 0.0196 1.7868 -4.7703 -0.0000 0.0000 -5.8026 -12.9614 5.5864 0.5695 0.0000 0.0000
 2.9739 32.7041 -12.5951 12.9553 -0.1829 -0.4317 -17.0331 -6.2681 -1.2408 16.3519 -4.0711 0.3881 28.5647 31.1320 21.5869 -72.9947 -3.2915 -30.1334 3.7539 0.0000 7.3726 0.3944 -4.1235 5.4684 33.1476 -0.0000 26.2537 -6.8342 -3.0326 -30.8851 -20.3648 -1.4915 42.1901 0.2396 -0.0000 7.8172 -0.0227 1.5505 0.8402 32.8623 0.0000 -24.3270 -4.3995 -5.7955 1.3042 -5.3821 -0.0000 -0.0000 -2.2176 13.8732 -14.0651 -5.4792 0.0000 0.0000 -3.9592 -0.0074 1.7675 -4.7534 0.0000 -0.0000 -5.8335 -12.9371 5.5923 0.5850 0.0000 -0.0000
 2.9774 32.7036 -12.5953 12.9402 -0.1895 -0.4266 -17.0362 -6.2575 -1.2455 16.3546 -4.0870 0.3973 28.5616 31.1268 21.5976 -73.0150 -3.2356 -30.1256 3.7233 0.0000 7.4281 0.4038 -4.1754 5.5281 33.1476 -0.0000 26.2537 -6.8216 -3.0395 -30.8844 -20.3748 -1.5134 42.1927 0.2256 -0.0000 7.8447 -0.0233 1.5652 0.8538 32.8623 0.0000 -24.3270 -4.3858 -5.7897 1.2909 -5.3817 -0.0000 0.0000 -2.2303 13.8861 -14.0342 -5.4387 -0.0000 0.0000 -3.9405 0.0003 1.7585 -4.7633 -0.0000 -0.0000 -5.8304 -12.9484 5.5809 0.5670 0.0000 -0.0000
 2.9809 32.7027 -12.5951 12.9277 -0.2030 -0.4200 -17.0430 -6.2457 -1.2516 16.3455 -4.0894 0.4159 28.6063 31.1503 21.5816 -73.0193 -3.2493 -30.1299 3.7253 0.0000 7.3266 0.4005 -4.1876 5.4686 33.1476 -0.0000 26.2537 -6.8126 -3.0376 -30.8855 -20.3736 -1.5361 42.2009 0.2196 -0.0000 7.8521 -0.0267 1.6985 0.9024 32.8623 0.0000 -24.3270 -4.3674 -5.7978 1.2805 -5.3909 0.0000 0.0000 -2.2234 13.8913 -14.0246 -5.5609 0.0000 -0.0000 -3.9271 0.0141 1.7472 -4.7653 -0.0000 0.0000 -5.8442 -12.9496 5.5932 0.5648 -0.0000 -0.0000
 2.9843 32.7019 -12.5944 12.9070 -0.2075 -0.4152 -17.0414 -6.2268 -1.2574 16.3679 -4.1147 0.4227 28.6060 31.1422 21.5901 -73.0320 -3.2373 -30.1309 3.7173 0.0000 7.3023 0.3960 -4.1762 5.4214 33.1476 -0.0000 26.2537 -6.8076 -3.0372 -30.8906 -20.3581 -1.5618 42.2035 0.1935 -0.0000 7.8941 -0.0265 1.7364 0.8745 32.8623 0.0000 -24.3270 -4.3503 -5.7850 1.2665 -5.3794 -0.0000 -0.0000 -2.2443 13.8937 -14.0257 -5.5186 0.0000 0.0000 -3.9036 -0.0010 1.7364 -4.7663 -0.0000 -0.0000 -5.8599 -12.9347 5.6193 0.6295 -0.0000 0.0000
